<svg width="12" height="11" viewBox="0 0 12 11" fill="none" xmlns="http://www.w3.org/2000/svg">
<path fill-rule="evenodd" clip-rule="evenodd" d="M0.545755 3.05725C0.56203 1.46978 1.84311 0.0909119 3.4715 0.0909119C4.47615 0.0909119 5.21453 0.588326 5.6846 1.05504C5.80551 1.17509 5.91057 1.29484 6.00002 1.40661C6.08947 1.29484 6.19453 1.17509 6.31544 1.05504C6.78551 0.588326 7.52389 0.0909119 8.52855 0.0909119C10.1531 0.0909119 11.4376 1.43161 11.4543 3.05725C11.4699 4.57564 10.8169 5.91106 9.87946 7.05787C8.94379 8.20256 7.70304 9.18678 6.48527 10.0153C6.34217 10.1126 6.1731 10.1647 6.00002 10.1647C5.82695 10.1647 5.65787 10.1126 5.51477 10.0153C4.29146 9.18301 3.04973 8.21183 2.11521 7.07436C1.17752 5.93304 0.529937 4.60014 0.545755 3.05725ZM5.60193 2.40526L5.60206 2.40552L5.60214 2.40568L5.60226 2.40593L5.60246 2.40631C5.60248 2.40636 5.60232 2.40604 5.60196 2.40533L5.59745 2.39677C5.59288 2.3882 5.5852 2.37412 5.57443 2.3553C5.55285 2.31761 5.51904 2.26128 5.47306 2.19255C5.38059 2.05434 5.24162 1.87009 5.05718 1.68696C4.68641 1.31883 4.16053 0.981409 3.4715 0.981409C2.36508 0.981409 1.44783 1.93271 1.4362 3.06638C1.42318 4.33686 1.95198 5.47292 2.80326 6.50907C3.65399 7.54454 4.80743 8.45589 6.00002 9.26835C7.18257 8.46261 8.33667 7.53823 9.18999 6.4943C10.0453 5.44789 10.5766 4.30902 10.5638 3.06638C10.5519 1.90238 9.63874 0.981409 8.52855 0.981409C7.83951 0.981409 7.31364 1.31883 6.94286 1.68696C6.75842 1.87009 6.61946 2.05434 6.52699 2.19255C6.481 2.26128 6.44719 2.31761 6.42562 2.3553C6.41484 2.37412 6.40717 2.3882 6.4026 2.39676L6.39809 2.40533L6.3981 2.40529C6.32262 2.55594 6.16855 2.65109 6.00002 2.65109C5.83164 2.65109 5.67769 2.55611 5.60214 2.40568C5.60207 2.40554 5.602 2.4054 5.60193 2.40526ZM6.39809 2.40533C6.39773 2.40603 6.39756 2.40636 6.39759 2.4063L6.39778 2.40593L6.39799 2.40552" fill="#1F2933"/>
</svg>