<svg width="12" height="11" viewBox="0 0 12 11" fill="none" xmlns="http://www.w3.org/2000/svg">
<path d="M5.99996 10.1603C5.83153 10.1601 5.66706 10.1092 5.52795 10.0143C3.46714 8.6153 2.57479 7.65608 2.08259 7.05638C1.0337 5.77804 0.531541 4.46561 0.545701 3.04435C0.562221 1.41568 1.86888 0.0909271 3.45848 0.0909271C4.61437 0.0909271 5.41494 0.742029 5.88117 1.28431C5.89594 1.30131 5.91419 1.31495 5.93468 1.32429C5.95517 1.33364 5.97743 1.33847 5.99996 1.33847C6.02248 1.33847 6.04474 1.33364 6.06523 1.32429C6.08573 1.31495 6.10397 1.30131 6.11874 1.28431C6.58498 0.741504 7.38555 0.0909271 8.54143 0.0909271C10.131 0.0909271 11.4377 1.41568 11.4542 3.04462C11.4684 4.46613 10.9657 5.77856 9.91732 7.05664C9.42512 7.65635 8.53278 8.61556 6.47196 10.0145C6.33282 10.1094 6.16836 10.1602 5.99996 10.1603Z" fill="#1F2933"/>
</svg>
